/* XPM */
static char *_1365882306d4a69acb0a780d73641f07EpA23A40B4eTquG[] = {
/* columns rows colors chars-per-pixel */
"32 32 152 2 ",
"   c None",
".  c #040404",
"X  c #090909",
"o  c #161616",
"O  c gray9",
"+  c #1B1B1B",
"@  c gray13",
"#  c gray14",
"$  c #272727",
"%  c gray16",
"&  c #2A2A2A",
"*  c gray17",
"=  c #2D2D2D",
"-  c gray18",
";  c #313131",
":  c #323232",
">  c #353535",
",  c #373737",
"<  c #393939",
"1  c #3A3A3A",
"2  c gray23",
"3  c #3C3C3C",
"4  c gray24",
"5  c #3E3E3E",
"6  c #3F3F3F",
"7  c #414141",
"8  c gray26",
"9  c #434343",
"0  c #444444",
"q  c #464646",
"w  c gray28",
"e  c #484848",
"r  c #494949",
"t  c gray29",
"y  c #4B4B4B",
"u  c gray30",
"i  c gray31",
"p  c #505050",
"a  c #515151",
"s  c gray32",
"d  c #535353",
"f  c gray33",
"g  c #555555",
"h  c #565656",
"j  c #585858",
"k  c #5A5A5A",
"l  c #5B5B5B",
"z  c #5D5D5D",
"x  c #5F5F5F",
"c  c #626262",
"v  c #656565",
"b  c gray40",
"n  c #676767",
"m  c #686868",
"M  c #6A6A6A",
"N  c gray42",
"B  c #6C6C6C",
"V  c #6D6D6D",
"C  c gray43",
"Z  c #6F6F6F",
"A  c gray44",
"S  c #717171",
"D  c #747474",
"F  c #767676",
"G  c #777777",
"H  c #797979",
"J  c gray48",
"K  c #7B7B7B",
"L  c #7C7C7C",
"P  c gray50",
"I  c #808080",
"U  c gray51",
"Y  c #838383",
"T  c #868686",
"R  c gray53",
"E  c #898989",
"W  c gray54",
"Q  c #8B8B8B",
"!  c gray55",
"~  c #909090",
"^  c gray57",
"/  c #939393",
"(  c gray59",
")  c #979797",
"_  c #989898",
"`  c #9A9A9A",
"'  c gray61",
"]  c #9D9D9D",
"[  c gray62",
"{  c #9F9F9F",
"}  c gray63",
"|  c #A4A4A4",
" . c #A7A7A7",
".. c #A9A9A9",
"X. c #AAAAAA",
"o. c gray67",
"O. c #ACACAC",
"+. c gray68",
"@. c gray69",
"#. c #B1B1B1",
"$. c gray70",
"%. c #B6B6B6",
"&. c gray72",
"*. c #B9B9B9",
"=. c gray73",
"-. c #BBBBBB",
";. c #BCBCBC",
":. c gray74",
">. c gray",
",. c gray75",
"<. c #C0C0C0",
"1. c #C1C1C1",
"2. c gray76",
"3. c #C3C3C3",
"4. c #C5C5C5",
"5. c gray78",
"6. c #C8C8C8",
"7. c gray79",
"8. c #CACACA",
"9. c #CBCBCB",
"0. c #CDCDCD",
"q. c #CECECE",
"w. c gray81",
"e. c #D0D0D0",
"r. c #D2D2D2",
"t. c #D5D5D5",
"y. c #D7D7D7",
"u. c #D8D8D8",
"i. c gray85",
"p. c #DADADA",
"a. c gray86",
"s. c gainsboro",
"d. c #DDDDDD",
"f. c gray87",
"g. c #DFDFDF",
"h. c gray88",
"j. c #E1E1E1",
"k. c #E2E2E2",
"l. c gray89",
"z. c #E4E4E4",
"x. c gray90",
"c. c #E6E6E6",
"v. c #E7E7E7",
"b. c gray93",
"n. c #EEEEEE",
"m. c gray94",
"M. c gray95",
"N. c #F4F4F4",
"B. c gray97",
"V. c #FBFBFB",
"C. c gray99",
"Z. c white",
/* pixels */
"                                                                ",
"                                                                ",
"                                                                ",
"                    a a a a h                                   ",
"                # M . H E E E < h                               ",
"              k ' a R q y y y H c z                             ",
"            + ( b u Y 7.g.g.k.| S S <                           ",
"            F L b h >.g.g.k.g.g.( F 9                           ",
"            F ; a ..w.k.g.g.k.k.k.3 Z                           ",
"            k & y ..w.g.k.g.g.g.k.< Z                           ",
"            h # 3 ..1.g.k.g.g.g.e.< Z F ( 3 O                   ",
"            - - 3 ! =.t.p.k.g.p.L z a g.k.p.t.b u               ",
"        z Y >.E a > >.=.1.w.7.c a 3 ' z.k.z.k.z.7.R ;           ",
"      k =.1.7.4.M S & E ( < & k q | z.z.z.k.z.k.k.k...c         ",
"    z 1.t.p.k.k.k.p.' h u 3 3 y L g.z.z.k.z.k.z.k.z.k.' h       ",
"  a p.k.k.z.k.z.z.k.e._ / R ! w.g.k.z.k.z.k.z.k.z.k.z.z.'       ",
"q ( k.k.z.z.k.z.z.k.z.1.7.e.z.k.k.z.k.z.z.k.z.k.z.k.z.k.7.k     ",
"# k.k.g.Z a p.k.k.z.k.g.k.z.k.z.z.k.z.k.k.z.k.z.k.z.k.z.k.y     ",
"Z b.k...Y ! / k.z.k.k.z.z.z.z.k.k.z.k.z.z.k.z.k.z.k.z.k.k./ q   ",
"=.B.k.@.k O._ z.k.z.z.k.z.k.k.z.z.k.z.k.k.z.k.z.k.z.k.z.k.k.@   ",
"%.V.M.z.! Y k.z.z.k.k.z.k.k.z.k.k.z.k.z.k.z.z.k.z.k.z.k.k.>.@ M ",
"%.Z.Z.V.M.z.z.v.z.M.V.V.V.Z.V.V.v.z.z.z.z.k.k.z.k.z.k.z.p.@.9 L ",
"%.Z.Z.Z.Z.Z.Z.Z.Z.Z.M.k.k.z.Z.Z.Z.Z.M.z.k.k.z.k.z.k.k.t.....< Z ",
"@.Z.Z.Z.Z.Z.V.V.V.w.1.=.=.>.7.7.k.Z.Z.V.v.z.k.k.t.>.%...O...O b ",
"S 4.z.z.z.z.7.=.=.=.>.=.>.=.=.=.=.>.v.z.v.4.>.@...........E >   ",
"- =.>.=.>.>.=.>.=.>.=.=.=.=.=.>.>.=.>.=.>.=.=.=.=.>.@...! a     ",
"  X Z E E %.=.=.=.=.=.>.>.=.=.=.=.=.=.>.=.=.=.>.=._ E y &       ",
"          9 < < < < < O.=.>.>.=.=.>.=.>.! < < < <               ",
"                      3 & & & & & & & & q                       ",
"                                                                ",
"                                                                ",
"                                                                "
};
